<svg xmlns="http://www.w3.org/2000/svg" width="19.691" height="18.554" viewBox="0 0 19.691 18.554">
  <defs>
    <style>
      .cls-1 {
        fill: #287197;
      }
    </style>
  </defs>
  <g id="directions" transform="translate(0)">
    <path id="Path_1180" data-name="Path 1180" class="cls-1" d="M19.453,8.692,17.485,7.339a.55.55,0,0,0-.311-.1h-7.2a.549.549,0,0,0-.549.549v3.724H2.517a.55.55,0,0,0-.311.1L.238,12.966a.549.549,0,0,0,0,.905l1.968,1.353a.55.55,0,0,0,.311.1h6.91V24.7H7.135a.549.549,0,1,0,0,1.1h5.473a.549.549,0,1,0,0-1.1H10.526V11.047h6.647a.55.55,0,0,0,.311-.1L19.453,9.6a.549.549,0,0,0,0-.905ZM2.688,14.222l-1.169-.8,1.169-.8h6.74v1.608ZM17,9.948H10.526V8.341H17l1.169.8Z" transform="translate(0 -7.242)"/>
  </g>
</svg>
