<svg xmlns="http://www.w3.org/2000/svg" xmlns:xlink="http://www.w3.org/1999/xlink" width="19" height="18" viewBox="0 0 19 18">
  <defs>
    <style>
      .cls-1 {
        fill: #287197;
      }

      .cls-2 {
        clip-path: url(#clip-path);
      }
    </style>
    <clipPath id="clip-path">
      <rect id="Rectangle_1295" data-name="Rectangle 1295" class="cls-1" width="19" height="18"/>
    </clipPath>
  </defs>
  <g id="Mask_Group_68" data-name="Mask Group 68" class="cls-2">
    <g id="email" transform="translate(0 1.567)">
      <g id="Group_2703" data-name="Group 2703" transform="translate(0 0)">
        <path id="Path_1182" data-name="Path 1182" class="cls-1" d="M17.33,132.363H1.67A1.7,1.7,0,0,0,0,134.078v11.436a1.7,1.7,0,0,0,1.67,1.715H17.33A1.7,1.7,0,0,0,19,145.514V134.078A1.7,1.7,0,0,0,17.33,132.363Zm-.231,1.144-7.564,7.77-7.63-7.77ZM1.113,145.277V134.309l5.362,5.46Zm.787.809,5.365-5.511,1.88,1.914a.546.546,0,0,0,.785,0l1.833-1.883,5.336,5.481Zm15.986-.809L12.551,139.8l5.336-5.481Z" transform="translate(0 -132.363)"/>
      </g>
    </g>
  </g>
</svg>
