<?xml version="1.0" encoding="utf-8"?>
<!-- Generator: Adobe Illustrator 16.0.0, SVG Export Plug-In . SVG Version: 6.00 Build 0)  -->
<!DOCTYPE svg PUBLIC "-//W3C//DTD SVG 1.1//EN" "http://www.w3.org/Graphics/SVG/1.1/DTD/svg11.dtd" [
	<!ENTITY ns_extend "http://ns.adobe.com/Extensibility/1.0/">
	<!ENTITY ns_ai "http://ns.adobe.com/AdobeIllustrator/10.0/">
	<!ENTITY ns_graphs "http://ns.adobe.com/Graphs/1.0/">
	<!ENTITY ns_vars "http://ns.adobe.com/Variables/1.0/">
	<!ENTITY ns_imrep "http://ns.adobe.com/ImageReplacement/1.0/">
	<!ENTITY ns_sfw "http://ns.adobe.com/SaveForWeb/1.0/">
	<!ENTITY ns_custom "http://ns.adobe.com/GenericCustomNamespace/1.0/">
	<!ENTITY ns_adobe_xpath "http://ns.adobe.com/XPath/1.0/">
]>
<svg version="1.1" id="Layer_1" xmlns:x="&ns_extend;" xmlns:i="&ns_ai;" xmlns:graph="&ns_graphs;"
	 xmlns="http://www.w3.org/2000/svg" xmlns:xlink="http://www.w3.org/1999/xlink" x="0px" y="0px" width="1263.699px"
	 height="1083.078px" viewBox="0 0 1263.699 1083.078" style="enable-background:new 0 0 1263.699 1083.078;" xml:space="preserve">
<metadata>
	<sfw  xmlns="&ns_sfw;">
		<slices></slices>
		<sliceSourceBounds  height="1078.549" width="1192.739" x="142.261" y="-2.826" bottomLeftOrigin="true"></sliceSourceBounds>
	</sfw>
</metadata>
<polyline style="fill:none;stroke:#FFFFFF;stroke-width:15;stroke-linejoin:round;stroke-miterlimit:10;" points="802.75,875.453 
	802.75,865.743 801.983,858.899 801.983,856.608 802.75,852.81 802.75,850.531 801.983,845.966 801.227,844.454 801.983,841.409 
	801.983,839.89 804.259,835.319 805.028,833.045 805.028,821.632 805.782,820.878 806.549,819.354 806.549,817.079 804.259,817.079 
	801.983,812.511 802.75,808.711 806.549,799.589 807.304,795.023 808.073,791.223 807.304,782.103 805.782,777.533 801.983,770.689 
	801.227,766.891 801.227,764.612 802.75,761.567 802.75,754.725 801.983,750.926 800.458,747.123 798.185,744.849 788.306,739.514 
	782.985,734.959 776.139,731.157 773.097,728.869 770.052,725.07 769.295,720.516 770.052,712.146 770.052,709.872 769.295,707.581 
	767.02,705.304 763.975,699.983 762.451,695.414 763.205,691.615 767.02,688.57 771.573,687.816 773.851,686.292 780.694,672.604 
	782.985,671.081 784.494,669.56 789.062,669.56 790.583,668.049 791.338,665.762 790.583,663.482 788.306,660.438 787.538,658.917 
	787.538,655.886 788.306,654.36 790.583,651.315 792.861,647.517 792.861,645.239 792.107,642.951 791.338,640.673 791.338,635.351 
	790.583,633.072 789.816,631.552 787.538,630.027 785.261,629.262 782.216,627.752 780.694,626.229 779.174,625.462 
	776.896,626.229 776.139,626.982 776.139,628.506 775.372,629.262 775.372,630.027 773.851,630.784 771.573,630.784 
	770.818,631.552 770.052,632.307 759.406,633.072 757.885,633.072 754.086,636.874 751.808,638.395 750.284,637.628 
	748.764,636.104 746.485,636.104 744.964,637.628 744.207,639.906 743.44,641.428 741.162,642.194 739.642,641.428 738.887,639.906 
	738.117,637.628 738.117,635.351 737.363,634.583 735.843,633.072 734.318,631.552 732.798,630.784 731.273,630.027 
	727.475,622.417 725.954,621.662 724.442,620.908 720.631,620.908 719.876,622.417 719.876,624.707 718.353,626.982 
	716.074,625.462 715.308,623.94 716.074,618.617 716.074,617.095 710.755,611.773 703.911,606.451 703.153,605.696 702.387,603.419 
	700.108,601.897 698.588,600.374 697.063,599.607 695.542,595.808 695.542,585.162 693.265,582.888 690.987,582.888 
	689.466,584.408 687.945,585.162 684.9,585.162 684.143,583.642 685.667,576.04 684.9,574.52 680.344,574.52 678.823,573.767 
	678.066,572.995 678.066,572.241 677.299,571.475 677.299,568.442 676.545,567.677 674.254,566.151 668.935,560.074 
	666.656,556.275 665.133,553.23 663.611,546.388 662.857,544.108 661.333,542.588 652.966,534.975 649.934,531.176 644.613,522.811 
	643.847,518.254 642.323,515.977 640.045,515.21 636.246,515.21 633.968,514.455 633.201,512.165 632.447,510.644 631.68,509.888 
	630.923,509.133 630.169,509.133 628.647,510.644 627.881,511.41 625.603,511.41 625.603,503.81 624.079,503.043 619.526,502.289 
	618.001,502.289 616.481,500.768 614.957,498.489 614.203,496.967 611.158,494.679 610.392,493.921 611.912,492.4 608.88,490.876 
	605.068,488.601 602.036,486.323 600.516,484.032 598.991,482.512 599.749,481 600.516,479.479 601.27,477.955 600.516,475.667 
	599.749,471.865 599.749,468.833 600.516,466.546 602.036,462.746 602.036,460.469 602.794,460.469 604.314,458.944 604.314,456.67 
	603.561,453.625 602.794,452.854 602.794,442.979 600.516,442.212 600.516,441.458 599.749,440.691 598.991,439.18 598.991,437.659 
	598.237,436.135 598.991,433.856 598.991,432.336 599.749,430.812 598.991,423.968 598.991,420.169 598.237,417.878 
	598.237,417.125 597.471,416.37 595.946,414.846 595.946,414.079 595.192,413.325 590.626,409.526 589.869,408.002 589.103,406.481 
	588.349,404.203 588.349,401.158 589.103,399.638 589.103,398.881 589.869,397.359 589.869,395.836 588.349,393.548 
	588.349,384.426 589.103,384.426 589.103,383.672 589.869,382.902 589.869,380.627 590.626,379.87 590.626,379.104 591.394,378.349 
	595.946,373.78 596.717,373.026 596.717,372.259 598.237,370.735 598.237,367.703 597.471,366.937 597.471,366.182 596.717,365.416 
	596.717,361.616 597.471,360.093 597.471,356.294 598.237,354.77 598.237,354.016 598.991,353.25 598.991,352.494 598.237,350.971 
	598.237,350.217 599.749,347.172 601.27,344.894 602.036,341.083 602.036,339.573 604.314,336.528 605.068,335.005 605.068,326.64 
	606.593,325.116 608.113,322.084 615.715,313.716 617.235,310.671 618.759,306.105 619.526,303.827 621.034,303.073 
	622.559,302.307 626.357,299.274 629.402,294.705 630.169,293.185 631.68,291.661 631.68,289.386 632.447,288.619 632.447,287.861 
	636.246,281.784 636.246,281.018 635.492,267.33 635.492,265.807 636.246,265.807 637,265.052 637,261.253 635.492,258.208 
	636.246,257.454 636.246,256.685 637.77,255.163 638.523,252.886 640.814,246.042 641.568,246.042 641.568,245.287 642.323,244.521 
	643.09,242.997 641.568,239.965 641.568,235.398 642.323,233.121 643.09,231.597 644.613,230.83 642.323,227.798 641.568,225.51 
	641.568,220.954 643.09,217.155 643.847,214.864 643.847,210.312 643.09,205.742 642.323,201.177 640.814,198.145 637.77,195.099 
	637,193.575 636.246,191.301 638.523,179.134 637.77,178.367 "/>
<polygon style="fill:#ABD5FF;stroke:#FFFFFF;stroke-width:10;stroke-linejoin:round;stroke-miterlimit:10;" points="
	801.374,859.584 800.624,863.316 799.885,865.542 798.399,867.033 796.907,866.283 795.419,866.283 793.19,867.033 796.168,867.033 
	796.907,867.771 797.658,867.771 798.399,869.262 800.624,871.487 801.374,872.979 802.116,874.466 802.865,876.696 
	802.116,880.424 802.116,884.141 799.885,886.37 796.168,885.633 799.135,887.861 799.885,888.6 801.374,887.109 801.374,888.6 
	799.135,893.806 799.135,897.536 797.658,899.012 796.168,899.762 796.907,900.503 796.907,901.991 796.168,902.741 
	794.678,902.741 793.927,901.991 793.19,900.503 791.7,899.012 790.21,899.012 787.983,896.783 787.983,894.558 787.246,893.806 
	785.753,890.836 785.002,890.087 784.265,890.836 783.528,891.578 782.038,891.578 781.286,893.067 780.548,895.295 
	779.058,897.536 776.08,896.783 776.08,899.012 777.57,901.253 779.058,902.741 781.286,902.741 780.548,899.762 781.286,898.274 
	782.775,898.274 783.528,900.503 784.265,901.253 787.246,901.253 788.733,902.741 783.528,904.97 782.038,904.219 781.286,904.219 
	780.548,905.708 779.798,905.708 777.57,906.461 773.112,907.199 770.874,908.687 776.829,912.406 779.798,913.896 782.775,912.406 
	784.265,911.666 785.002,910.916 785.753,910.916 786.494,910.177 786.494,908.687 787.246,907.949 788.733,905.708 
	789.474,905.708 789.474,906.461 790.961,906.461 792.452,907.199 792.452,906.461 793.927,907.949 794.678,910.177 
	795.419,911.666 796.907,912.406 798.399,911.666 801.374,909.428 802.865,909.428 802.865,913.157 801.374,915.383 
	800.624,916.123 798.399,919.104 797.658,919.853 796.907,921.328 799.135,922.082 801.374,923.569 804.34,925.062 805.093,927.286 
	805.093,928.778 805.833,930.265 805.093,931.006 803.604,931.757 802.865,931.757 802.116,928.778 801.374,927.286 
	799.885,928.027 797.658,928.778 796.907,929.516 797.658,931.006 798.399,932.494 799.135,933.233 797.658,934.722 
	796.907,932.494 795.419,931.757 794.678,932.494 793.927,934.722 792.452,933.233 791.7,933.233 787.246,939.191 787.246,939.928 
	787.983,941.419 787.246,941.419 787.246,942.169 785.002,942.169 785.002,945.136 784.265,945.886 783.528,947.377 
	784.265,949.606 784.265,951.832 783.528,953.323 781.286,954.073 781.286,954.811 782.775,954.811 782.038,955.549 779.058,957.04 
	779.058,957.79 780.548,959.281 779.798,960.02 778.321,961.507 778.321,962.247 777.57,962.998 779.058,964.485 779.058,965.978 
	777.57,968.205 776.829,969.694 775.341,970.432 773.853,971.181 772.363,971.181 770.132,969.694 770.874,971.181 770.874,971.922 
	772.363,972.66 772.363,974.901 771.624,979.357 771.624,985.315 770.132,987.543 767.154,986.804 765.667,988.293 760.458,991.259 
	758.23,992.748 756.741,994.989 755.253,997.956 754.512,1000.197 752.286,1001.673 750.795,1002.426 749.308,1001.673 
	747.817,1001.673 747.08,1000.197 747.08,997.217 746.328,997.217 744.837,996.468 744.837,995.728 744.099,994.989 
	744.099,994.239 744.837,993.501 744.099,992.748 743.349,992.01 742.608,991.259 741.871,989.772 741.122,986.804 740.382,986.052 
	738.892,986.804 736.663,987.543 732.934,986.804 732.934,983.085 732.196,985.315 730.708,986.052 729.216,986.052 
	727.729,987.543 726.989,988.293 725.5,989.031 724.008,988.293 722.521,987.543 722.521,990.522 718.064,990.522 715.837,991.259 
	716.575,992.01 712.108,997.217 709.879,998.706 706.163,998.706 704.672,999.447 705.421,1002.426 704.672,1002.426 
	703.184,1003.163 701.693,1003.914 700.956,1005.405 700.956,1006.881 701.693,1006.881 702.442,1007.631 702.442,1008.371 
	700.956,1009.122 700.216,1008.371 699.463,1007.631 697.976,1008.371 696.488,1008.371 695.008,1009.122 694.258,1008.371 
	692.768,1005.405 691.281,1004.651 689.8,1003.914 689.05,1003.914 687.564,1003.163 686.083,1003.163 685.333,1001.673 
	684.596,1000.935 683.842,999.447 683.842,1000.935 683.106,1002.426 683.106,1003.914 683.842,1006.144 690.542,1012.102 
	697.239,1015.067 698.726,1016.556 697.976,1018.784 695.747,1018.046 692.03,1016.556 692.03,1017.305 692.768,1017.305 
	692.768,1018.784 692.03,1019.534 690.542,1020.273 689.8,1021.025 689.05,1021.025 687.564,1020.273 686.083,1019.534 
	684.596,1020.273 686.823,1026.231 686.083,1026.231 683.106,1026.97 681.617,1026.97 683.106,1027.722 668.976,1041.113 
	662.277,1045.57 660.79,1047.058 659.297,1049.287 657.81,1051.525 655.581,1053.004 653.353,1053.754 654.092,1054.492 
	654.092,1056.733 652.602,1063.429 652.602,1070.116 651.864,1072.355 646.825,1080.904 654.41,1080.904 654.581,1080.563 
	656.318,1076.071 656.318,1064.908 657.072,1062.68 661.527,1055.245 668.976,1048.547 670.464,1047.796 671.942,1048.547 
	671.942,1046.321 677.148,1042.592 678.638,1041.85 680.125,1041.85 682.356,1042.592 683.842,1043.341 686.083,1042.592 
	683.106,1042.592 682.356,1041.85 682.356,1039.625 679.388,1037.383 680.125,1037.383 680.877,1036.646 681.617,1035.893 
	681.617,1034.417 683.106,1035.893 683.842,1033.667 683.842,1032.926 685.333,1034.417 686.083,1035.155 686.823,1034.417 
	686.083,1032.176 691.281,1029.209 693.518,1028.459 696.488,1029.209 697.239,1030.688 697.976,1032.176 698.726,1032.176 
	700.956,1031.438 700.956,1028.459 700.216,1026.97 698.726,1026.97 699.463,1026.231 697.976,1024.005 700.216,1024.005 
	706.163,1024.742 706.163,1021.025 706.901,1019.534 709.142,1018.784 709.879,1018.046 710.63,1016.556 711.368,1015.818 
	714.346,1016.556 712.108,1012.839 710.63,1009.122 710.63,1007.631 712.108,1007.631 714.346,1009.122 714.346,1006.881 
	713.596,1005.405 713.596,1003.914 715.086,1001.673 716.575,1000.197 718.803,999.447 720.292,1000.197 721.783,1000.935 
	721.783,999.447 721.042,998.706 721.042,996.468 721.783,995.728 723.272,995.728 724.008,994.989 724.008,994.239 
	724.762,994.239 725.5,993.501 726.25,993.501 729.216,991.259 730.708,990.522 732.934,991.259 734.424,992.01 735.174,992.748 
	736.663,993.501 738.142,994.239 737.405,994.989 738.142,995.728 741.122,996.468 740.382,997.217 738.892,999.447 
	740.382,999.447 742.608,1001.673 744.099,1001.673 744.099,1002.426 743.349,1003.163 743.349,1003.914 746.328,1003.914 
	747.817,1003.163 747.08,1006.144 744.837,1008.371 742.608,1009.86 740.382,1009.86 740.382,1012.102 741.122,1012.839 
	741.871,1013.576 742.608,1013.576 743.349,1011.347 744.837,1011.347 746.328,1012.102 747.08,1012.839 748.554,1013.576 
	750.044,1012.839 749.308,1012.839 747.817,1012.102 747.817,1010.609 748.554,1006.144 748.554,1004.651 755.253,1004.651 
	756.003,1003.914 757.492,1000.197 758.23,998.706 760.458,995.728 761.95,994.989 763.438,994.989 764.174,992.748 
	771.624,990.522 773.853,988.293 773.853,986.804 774.59,986.052 775.341,984.563 775.341,980.107 776.08,979.357 776.829,978.618 
	776.829,977.127 776.08,976.39 775.341,977.127 774.59,975.64 775.341,974.149 775.341,972.66 776.08,971.181 776.829,971.922 
	778.321,974.149 778.321,971.922 777.57,971.181 778.321,971.181 779.798,970.432 780.548,969.694 781.286,969.694 783.528,970.432 
	784.265,970.432 783.528,968.205 784.265,967.453 785.753,968.205 786.494,969.694 787.983,965.978 787.983,961.507 
	788.733,962.247 790.21,962.247 790.21,960.769 788.733,960.769 789.474,960.02 789.474,958.527 788.733,957.79 787.983,957.79 
	788.733,956.302 792.452,955.549 792.452,960.02 794.678,960.02 795.419,960.769 795.419,961.507 802.865,966.715 807.32,970.432 
	808.811,971.181 808.074,970.432 808.074,969.694 808.811,968.205 811.04,969.694 814.756,971.181 818.486,971.922 820.714,971.181 
	815.506,966.715 813.278,966.715 811.791,965.978 810.298,965.978 809.548,963.736 808.074,964.485 807.32,964.485 806.582,962.998 
	806.582,962.247 807.32,961.507 808.811,960.769 808.811,959.281 808.074,958.527 804.34,955.549 802.116,955.549 801.374,954.811 
	801.374,952.582 799.885,949.606 799.135,948.115 799.135,946.627 800.624,944.398 803.604,945.136 807.32,947.377 810.298,948.115 
	811.791,947.377 811.04,945.886 808.811,942.907 808.074,941.419 807.32,939.928 806.582,938.44 805.093,937.702 805.093,936.961 
	805.833,936.211 805.833,935.474 806.582,934.722 807.32,935.474 810.298,935.474 810.298,936.961 809.548,937.702 813.278,939.191 
	814.756,939.191 816.245,936.961 815.506,936.211 815.506,935.474 814.019,933.982 814.019,933.233 814.756,932.494 
	814.756,931.757 815.506,930.265 816.245,928.778 816.245,928.027 815.506,927.286 814.019,928.027 813.278,928.027 
	812.528,926.536 811.791,925.062 811.791,924.307 812.528,922.82 814.756,922.082 813.278,919.853 812.528,919.104 811.04,919.104 
	811.791,920.591 811.04,921.328 809.548,920.591 809.548,918.361 810.298,917.611 809.548,916.874 808.074,915.383 806.582,913.896 
	806.582,913.157 807.32,912.406 808.074,911.666 807.32,910.916 806.582,910.916 805.833,910.177 805.093,910.177 804.34,909.428 
	804.34,907.199 805.833,907.199 809.548,908.687 811.791,909.428 814.019,909.428 816.245,908.687 817.736,907.949 816.998,907.199 
	815.506,907.949 813.278,907.199 811.791,906.461 811.04,904.219 809.548,904.97 809.548,901.991 808.074,903.481 806.582,901.991 
	806.582,901.253 805.833,900.503 804.34,900.503 804.34,899.762 805.093,896.045 805.833,895.295 806.582,893.806 807.32,892.316 
	808.074,893.806 810.298,894.558 811.04,896.045 811.791,896.045 811.791,894.558 812.528,890.836 813.278,890.836 814.019,890.087 
	814.019,889.35 813.278,889.35 812.528,888.6 813.278,887.861 814.019,887.109 814.756,886.37 813.278,885.633 811.791,883.393 
	811.791,882.654 813.278,881.903 811.791,881.162 809.548,880.424 808.811,879.675 807.32,875.207 805.093,872.237 803.604,870.75 
	803.604,869.262 804.34,868.521 804.34,867.033 802.865,865.542 802.865,862.563 803.604,861.075 803.604,859.584 802.865,857.358 
	"/>
<polyline style="fill:none;stroke:#FFFFFF;stroke-width:10;stroke-linejoin:round;stroke-miterlimit:10;" points="802.75,875.453 
	802.75,865.743 801.983,858.899 801.983,856.608 802.75,852.81 802.75,850.531 801.983,845.966 801.227,844.454 801.983,841.409 
	801.983,839.89 804.259,835.319 805.028,833.045 805.028,821.632 805.782,820.878 806.549,819.354 806.549,817.079 804.259,817.079 
	801.983,812.511 802.75,808.711 806.549,799.589 807.304,795.023 808.073,791.223 807.304,782.103 805.782,777.533 801.983,770.689 
	801.227,766.891 801.227,764.612 802.75,761.567 802.75,754.725 801.983,750.926 800.458,747.123 798.185,744.849 788.306,739.514 
	782.985,734.959 776.139,731.157 773.097,728.869 770.052,725.07 769.295,720.516 770.052,712.146 770.052,709.872 769.295,707.581 
	767.02,705.304 763.975,699.983 762.451,695.414 763.205,691.615 767.02,688.57 771.573,687.816 773.851,686.292 780.694,672.604 
	782.985,671.081 784.494,669.56 789.062,669.56 790.583,668.049 791.338,665.762 790.583,663.482 788.306,660.438 787.538,658.917 
	787.538,655.886 788.306,654.36 790.583,651.315 792.861,647.517 792.861,645.239 792.107,642.951 791.338,640.673 791.338,635.351 
	790.583,633.072 789.816,631.552 787.538,630.027 785.261,629.262 782.216,627.752 780.694,626.229 779.174,625.462 
	776.896,626.229 776.139,626.982 776.139,628.506 775.372,629.262 775.372,630.027 773.851,630.784 771.573,630.784 
	770.818,631.552 770.052,632.307 759.406,633.072 757.885,633.072 754.086,636.874 751.808,638.395 750.284,637.628 
	748.764,636.104 746.485,636.104 744.964,637.628 744.207,639.906 743.44,641.428 741.162,642.194 739.642,641.428 738.887,639.906 
	738.117,637.628 738.117,635.351 737.363,634.583 735.843,633.072 734.318,631.552 732.798,630.784 731.273,630.027 
	727.475,622.417 725.954,621.662 724.442,620.908 720.631,620.908 719.876,622.417 719.876,624.707 718.353,626.982 
	716.074,625.462 715.308,623.94 716.074,618.617 716.074,617.095 710.755,611.773 703.911,606.451 703.153,605.696 702.387,603.419 
	700.108,601.897 698.588,600.374 697.063,599.607 695.542,595.808 695.542,585.162 693.265,582.888 690.987,582.888 
	689.466,584.408 687.945,585.162 684.9,585.162 684.143,583.642 685.667,576.04 684.9,574.52 680.344,574.52 678.823,573.767 
	678.066,572.995 678.066,572.241 677.299,571.475 677.299,568.442 676.545,567.677 674.254,566.151 668.935,560.074 
	666.656,556.275 665.133,553.23 663.611,546.388 662.857,544.108 661.333,542.588 652.966,534.975 649.934,531.176 644.613,522.811 
	643.847,518.254 642.323,515.977 640.045,515.21 636.246,515.21 633.968,514.455 633.201,512.165 632.447,510.644 631.68,509.888 
	630.923,509.133 630.169,509.133 628.647,510.644 627.881,511.41 625.603,511.41 625.603,503.81 624.079,503.043 619.526,502.289 
	618.001,502.289 616.481,500.768 614.957,498.489 614.203,496.967 611.158,494.679 610.392,493.921 611.912,492.4 608.88,490.876 
	605.068,488.601 602.036,486.323 600.516,484.032 598.991,482.512 599.749,481 600.516,479.479 601.27,477.955 600.516,475.667 
	599.749,471.865 599.749,468.833 600.516,466.546 602.036,462.746 602.036,460.469 602.794,460.469 604.314,458.944 604.314,456.67 
	603.561,453.625 602.794,452.854 602.794,442.979 600.516,442.212 600.516,441.458 599.749,440.691 598.991,439.18 598.991,437.659 
	598.237,436.135 598.991,433.856 598.991,432.336 599.749,430.812 598.991,423.968 598.991,420.169 598.237,417.878 
	598.237,417.125 597.471,416.37 595.946,414.846 595.946,414.079 595.192,413.325 590.626,409.526 589.869,408.002 589.103,406.481 
	588.349,404.203 588.349,401.158 589.103,399.638 589.103,398.881 589.869,397.359 589.869,395.836 588.349,393.548 
	588.349,384.426 589.103,384.426 589.103,383.672 589.869,382.902 589.869,380.627 590.626,379.87 590.626,379.104 591.394,378.349 
	595.946,373.78 596.717,373.026 596.717,372.259 598.237,370.735 598.237,367.703 597.471,366.937 597.471,366.182 596.717,365.416 
	596.717,361.616 597.471,360.093 597.471,356.294 598.237,354.77 598.237,354.016 598.991,353.25 598.991,352.494 598.237,350.971 
	598.237,350.217 599.749,347.172 601.27,344.894 602.036,341.083 602.036,339.573 604.314,336.528 605.068,335.005 605.068,326.64 
	606.593,325.116 608.113,322.084 615.715,313.716 617.235,310.671 618.759,306.105 619.526,303.827 621.034,303.073 
	622.559,302.307 626.357,299.274 629.402,294.705 630.169,293.185 631.68,291.661 631.68,289.386 632.447,288.619 632.447,287.861 
	636.246,281.784 636.246,281.018 635.492,267.33 635.492,265.807 636.246,265.807 637,265.052 637,261.253 635.492,258.208 
	636.246,257.454 636.246,256.685 637.77,255.163 638.523,252.886 640.814,246.042 641.568,246.042 641.568,245.287 642.323,244.521 
	643.09,242.997 641.568,239.965 641.568,235.398 642.323,233.121 643.09,231.597 644.613,230.83 642.323,227.798 641.568,225.51 
	641.568,220.954 643.09,217.155 643.847,214.864 643.847,210.312 643.09,205.742 642.323,201.177 640.814,198.145 637.77,195.099 
	637,193.575 636.246,191.301 638.523,179.134 637.77,178.367 "/>
<polyline style="fill:none;stroke:#FFFFFF;stroke-width:10;stroke-linejoin:round;stroke-miterlimit:10;" points="628.648,172.29 
	627.88,170.012 625.602,167.721 625.602,163.168 624.845,160.877 624.845,154.033 624.08,152.522 621.035,151.001 620.281,148.71 
	622.558,149.479 623.326,149.479 624.08,148.71 624.845,147.956 624.845,144.157 625.602,144.157 626.357,144.911 626.357,145.679 
	627.125,145.679 627.88,144.157 627.88,141.112 628.648,139.589 630.168,138.834 631.679,138.834 632.448,138.067 632.448,135.789 
	633.202,135.789 634.724,135.035 637,132.745 637,131.224 636.247,129.7 636.247,128.191 637,127.425 637.769,127.425 
	638.523,128.191 639.292,128.945 640.814,128.191 639.292,126.668 640.044,124.38 641.569,119.057 641.569,116.024 640.044,110.702 
	640.044,106.136 638.523,106.136 637.769,103.091 637.769,97.769 636.247,97.015 636.247,96.247 635.493,95.49 636.247,94.724 
	638.523,93.97 640.044,93.97 640.044,91.691 639.292,90.925 638.523,90.17 637.769,90.17 639.292,90.17 639.292,89.403 
	640.044,89.403 638.523,87.893 640.814,85.602 640.814,84.081 640.044,83.327 640.044,80.282 640.814,79.524 641.569,78.758 
	643.089,78.758 643.846,78.004 644.614,78.004 645.369,74.205 646.134,74.205 646.891,73.435 647.645,72.681 648.413,71.16 
	649.167,71.16 649.933,70.402 652.965,70.402 653.736,69.636 653.736,68.115 654.49,68.115 658.29,61.271 659.812,59.747 
	659.812,58.239 660.58,57.469 661.333,55.948 662.1,55.194 663.612,55.948 665.903,55.948 665.132,55.194 665.132,54.424 
	665.903,53.67 668.934,54.424 672.747,54.424 675.779,53.67 677.298,50.625 677.298,47.581 680.343,47.581 681.869,46.072 
	681.869,44.548 680.343,43.781 680.343,43.027 681.098,42.261 681.869,42.261 682.623,43.027 683.388,43.027 683.388,40.749 
	684.901,37.704 686.42,36.185 686.42,33.139 685.667,33.139 685.667,32.381 686.42,31.615 687.946,31.615 689.465,30.86 
	689.465,30.094 690.219,28.582 690.988,29.336 692.51,28.582 695.543,27.062 695.543,26.295 694.79,24.771 694.79,22.493 
	697.063,20.218 697.063,19.448 "/>
<polyline style="fill:none;stroke:#FFFFFF;stroke-width:10;stroke-linejoin:round;stroke-miterlimit:10;" points="637.77,178.367 
	637.77,176.843 637,176.089 636.247,175.335 632.448,175.335 630.922,174.564 628.648,172.291 626.358,170.765 624.08,168.488 
	622.558,167.721 621.035,166.967 620.281,166.2 619.527,166.967 618.001,167.721 617.236,168.488 614.958,168.488 613.437,167.721 
	611.913,166.2 611.913,162.401 611.159,160.877 610.391,160.124 609.637,159.356 608.114,159.356 607.36,158.598 606.592,157.078 
	606.592,154.8 605.834,153.279 605.069,153.279 602.793,152.522 599.749,154.8 597.47,154.033 596.716,152.522 597.47,150.234 
	602.037,149.478 602.037,147.957 598.992,145.679 598.238,144.157 598.992,142.634 598.992,141.112 599.749,140.358 
	598.992,138.834 598.992,137.313 597.47,135.035 598.238,133.512 598.992,132.745 599.749,131.223 599.749,128.945 597.47,128.945 
	596.716,128.191 596.716,125.9 598.238,125.146 598.238,124.38 595.947,123.624 595.193,121.347 594.425,118.303 593.671,113.734 
	593.671,112.213 592.915,110.702 592.148,109.936 592.148,109.18 592.915,107.657 593.671,106.136 594.425,106.136 593.671,103.858 
	592.915,103.858 591.394,104.612 589.87,103.858 589.87,102.337 590.626,100.813 591.394,99.292 592.148,99.292 594.425,98.535 
	595.947,97.769 595.947,96.247 595.193,95.49 593.671,95.49 590.626,96.247 592.915,94.723 593.671,93.97 593.671,90.925 
	592.148,90.17 589.87,89.403 590.626,88.646 591.394,87.126 592.915,85.602 592.148,83.327 589.87,79.524 589.87,78.758 
	590.626,78.004 589.87,76.479 588.348,74.959 586.825,74.205 586.825,73.435 587.594,71.159 586.825,70.402 586.825,68.882 
	585.303,67.357 585.303,66.591 584.549,65.837 579.226,62.792 574.662,55.948 573.904,55.194 573.15,55.194 572.382,54.424 
	571.628,52.917 569.337,52.917 569.337,53.67 567.06,53.67 567.06,52.917 566.305,49.871 565.54,48.348 565.54,49.104 
	564.014,49.104 564.014,47.58 564.783,46.826 565.54,44.548 566.305,42.261 566.305,37.704 564.783,36.184 564.014,35.426 
	563.26,35.426 562.506,34.659 562.506,35.426 561.741,36.184 561.741,36.938 560.983,36.184 560.215,35.426 559.461,34.659 
	559.461,32.381 558.696,31.615 557.184,31.615 "/>
<polygon style="fill:#FFFFFF;" points="598.307,32.337 599.795,32.337 599.043,31.6 "/>
<path style="fill-rule:evenodd;clip-rule:evenodd;fill:#FFFFFF;" d="M983.619,428.851l-2.241,1.491l-2.228-0.741l-2.229-1.488
	l2.229-2.979h4.469V428.851z M965.757,420.679l-2.967,0.738h-0.75l-0.74,1.488l0.74,0.741h4.467l1.488-0.741v0.741h0.741v0.75
	l2.226,2.226l2.241,1.491v0.738l-3.729,0.75l-3.718-0.75l-2.967-0.738l-1.49-2.979h-0.75v-3.717l-0.738-0.738l0.738-0.753v0.753
	l0.75-0.753v-0.738l0.74-0.75h0.75l1.477,0.75l0.753,0.738L965.757,420.679z"/>
<polyline style="fill:none;stroke:#B1B1B1;stroke-width:0.96;stroke-linejoin:round;stroke-miterlimit:10;" points="
	502.354,298.665 498.634,326.94 496.396,335.864 "/>
<line style="fill:none;stroke:#B1B1B1;stroke-width:0.96;stroke-linejoin:round;stroke-miterlimit:10;" x1="29.272" y1="457.125" x2="259.118" y2="457.125"/>
<path style="fill:none;stroke:#B1B1B1;stroke-width:0.96;stroke-linejoin:round;stroke-miterlimit:10;" d="M695.009,132.773h0.737
	 M695.747,132.773l4.47,1.487 M700.955,158.068l-2.979-11.904v-3.716l-0.738-2.98l-3.72-3.72v-2.975 M693.518,132.773h1.491
	 M700.216,134.26h6.685l1.488-0.737l2.978-0.75h2.23l2.978-1.492l2.98-2.966l6.694-8.938l2.23-4.454l0.736-2.979l-1.487-5.946
	v-4.469l1.487-2.227l0.75-2.241l1.491-2.229l1.477-4.467l2.24-3.716l0.738-1.492v-2.966l-0.738-3.73l-1.487-0.737l-1.491-1.491
	l-1.488-2.229v-0.75"/>
<polyline style="fill:none;stroke:#B1B1B1;stroke-width:0.96;stroke-linejoin:round;stroke-miterlimit:10;" points="775.34,85.907 
	779.058,125.336 779.798,135.749 779.798,137.977 780.548,139.468 789.474,154.348 794.679,167.742 "/>
<path style="fill:none;stroke:#B1B1B1;stroke-width:0.96;stroke-linejoin:round;stroke-miterlimit:10;" d="M647.397,79.212h-0.74
	l-0.75,0.738h-1.477l-0.754,0.753h-0.737 M643.676,129.793l1.492-5.208v-2.966l-1.492-5.207v-4.468h-1.487l-0.737-2.979v-5.208
	l-1.491-0.738v-0.75l-0.738-0.74l0.738-0.751l2.229-0.738h1.487v-2.228l-0.737-0.751l-0.75-0.737h-0.737h1.487v-0.75h0.737
	l-1.487-1.479l2.241-2.241v-1.488l-0.754-0.739v-2.979l0.754-0.741l0.738-0.75h1.488l0.74-0.739h0.75l0.737-3.716l-0.737-0.753
	v-0.738h-0.75 M642.939,80.703h-0.75l-0.737-0.753h-0.753l-0.738-0.738v-0.751l0.738-2.966l0.753-5.958h0.737 M642.189,69.537v0.75
	h0.75"/>
<path style="fill:none;stroke:#B1B1B1;stroke-width:0.96;stroke-linejoin:round;stroke-miterlimit:10;" d="M738.142,643.108"/>
<polyline style="fill:none;stroke:#B1B1B1;stroke-width:0.96;stroke-linejoin:round;stroke-miterlimit:10;" points="
	705.359,169.712 709.879,225.771 703.933,312.058 "/>
<line style="fill:none;stroke:#B1B1B1;stroke-width:0.96;stroke-linejoin:round;stroke-miterlimit:10;" x1="700.955" y1="158.067" x2="676.409" y2="175.177"/>
<polyline style="fill:none;stroke:#B1B1B1;stroke-width:0.96;stroke-linejoin:round;stroke-miterlimit:10;" points="
	628.807,263.707 624.339,268.162 620.623,275.611 616.907,280.065 615.415,283.045 611.699,288.253 605.001,295.686 
	596.816,299.416 556.65,311.319 551.442,311.319 "/>
<polyline style="fill:none;stroke:#B1B1B1;stroke-width:0.96;stroke-linejoin:round;stroke-miterlimit:10;" points="
	794.678,167.742 796.168,178.155 797.658,201.213 798.399,203.451 799.135,204.93 799.885,206.418 "/>
<path style="fill:none;stroke:#B1B1B1;stroke-width:0.96;stroke-linejoin:round;stroke-miterlimit:10;" d="M703.934,312.058
	l3.717,2.228 M707.651,314.286l13.391-2.228 M721.042,312.058l8.175,0.74 M729.216,312.798l1.491-0.74h2.227l29.765-13.393
	l2.967-1.487l3.717-1.491h11.166"/>
<path style="fill:none;stroke:#B1B1B1;stroke-width:0.96;stroke-linejoin:round;stroke-miterlimit:10;" d="M742.609,625.25"/>
<polyline style="fill:none;stroke:#B1B1B1;stroke-width:0.96;stroke-linejoin:round;stroke-miterlimit:10;" points="676.41,175.177 
	656.318,164.764 655.582,164.014 654.843,162.535 654.093,160.293 652.601,158.806 651.864,155.839 651.114,154.348 650.376,152.86 
	649.636,152.11 648.885,151.372 647.397,149.143 645.906,147.653 645.168,146.902 645.168,143.936 646.656,139.468 646.656,137.977 
	647.397,136.489 648.147,134.998 651.114,133.523 653.352,131.281 "/>
<polyline style="fill:none;stroke:#B1B1B1;stroke-width:0.96;stroke-linejoin:round;stroke-miterlimit:10;" points="
	496.396,335.864 480.035,377.521 468.131,393.893 453.264,405.046 407.89,428.851 401.194,434.059 395.986,441.504 389.29,457.125 
	"/>
<line style="fill:none;stroke:#B1B1B1;stroke-width:0.96;stroke-linejoin:round;stroke-miterlimit:10;" x1="775.34" y1="85.907" x2="775.34" y2="75.496"/>
<polyline style="fill:none;stroke:#B1B1B1;stroke-width:0.96;stroke-linejoin:round;stroke-miterlimit:10;" points="
	632.527,176.667 631.777,174.438 629.547,172.197 629.547,165.501 628.806,164.764 628.806,158.806 628.056,157.327 
	625.078,155.839 624.431,153.878 624.339,153.598 626.312,154.262 626.568,154.348 627.318,154.348 628.056,153.598 
	628.806,152.859 628.806,149.521 628.806,149.143 629.547,149.143 630.286,149.881 630.286,150.631 631.037,150.631 
	631.114,150.475 631.777,149.143 631.777,146.164 632.527,144.673 634.014,143.936 635.494,143.936 636.244,143.185 
	636.244,140.956 636.981,140.956 638.472,140.219 640.699,137.977 640.699,136.489 639.96,134.998 640.699,133.522 640.699,132.965 
	640.699,132.772 641.452,132.772 642.189,133.522 642.867,134.188 642.939,134.26 644.43,133.522 642.939,132.031 "/>
<polyline style="fill:none;stroke:#B1B1B1;stroke-width:0.96;stroke-linejoin:round;stroke-miterlimit:10;" points="
	663.767,537.469 662.278,537.469 661.527,538.21 660.05,539.698 660.05,540.448 659.297,541.939 657.81,542.677 657.073,543.415 
	648.148,548.623 "/>
<path style="fill:none;stroke:#B1B1B1;stroke-width:0.96;stroke-linejoin:round;stroke-miterlimit:10;" d="M607.981,83.669h1.477
	 M595.327,84.419l0.751-2.229h0.737 M596.815,82.19h0.75l0.742,0.739l5.092,1.459l0.113,0.031h1.49l1.487-0.75h1.491
	 M609.458,83.669h1.49l-0.74-0.74h0.74V82.19h1.488l1.491-1.488h6.695l2.229-0.753l0.75-0.737v-2.23l0.738-1.487v-0.751l0.736-0.74
	l-0.736-1.488v-1.488l0.736-0.741l0.755-1.488l0.195,0.028l5.009,0.71l2.145,0.721l0.085,0.029h0.75l2.228-2.238l0.738-0.741h1.492"
	/>
<line style="fill:none;stroke:#B1B1B1;stroke-width:0.96;stroke-linejoin:round;stroke-miterlimit:10;" x1="705.421" y1="169.972" x2="700.955" y2="158.068"/>
<path style="fill:none;stroke:#B1B1B1;stroke-width:0.96;stroke-linejoin:round;stroke-miterlimit:10;" d="M629.548,123.107h2.978
	l1.488,0.741l1.479,0.737h0.75l0.737,0.751v0.737l1.491,1.492l1.488,2.228l1.491,1.488l1.487,0.75 M618.394,119.377h1.479
	 M619.874,119.377h1.486 M621.36,119.377h1.491l1.489-0.737h0.146h0.592l1.49,3.717h0.75l-0.01,0.485l0.01,0.265h2.23
	 M598.306,119.377l1.489-0.737l1.49-0.75l0.737-0.741l5.208-0.738h0.75l1.477-0.751l0.75-0.737h1.491 M611.699,114.923h0.737
	l1.491,0.737l1.488,2.23h1.49l0.737,1.487h0.751"/>
<polyline style="fill:none;stroke:#B1B1B1;stroke-width:0.96;stroke-linecap:round;stroke-linejoin:bevel;stroke-miterlimit:10;" points="
	483.754,158.067 489.709,143.936 494.167,139.468 510.539,132.032 513.504,129.053 517.221,126.074 519.462,122.356 
	521.691,117.148 520.954,112.682 519.462,110.454 514.996,104.506 508.296,94.095 507.56,92.604 507.56,89.627 509.049,86.648 
	510.539,85.158 512.016,82.929 512.016,82.19 511.275,79.212 509.049,77.724 508.296,76.982 508.296,76.232 507.56,75.496 
	507.56,74.004 508.296,73.254 514.254,71.027 520.954,66.558 521.691,65.819 524.67,62.104 529.875,50.938 530.273,50.52 "/>
<g>
	<path style="fill:none;stroke:#B1B1B1;stroke-width:0.96;stroke-linejoin:round;stroke-miterlimit:10;" d="M664.506,105.998h-4.455
		l-2.241,0.738h-1.492l-0.737,1.491l-0.737,0.738l-0.75,1.488l-0.74,1.49v2.23l1.49,3.717v2.978l0.737,2.239v5.946l-2.228,2.229
		 M666.734,105.998h-2.228 M668.976,105.998h-2.242 M671.942,105.998h-2.966 M695.747,75.495h-0.737v0.738l-3.729,6.696
		l-5.196,5.945l-0.75,1.491l-0.736,1.489l-0.754,1.49l-0.738,0.751l-0.75,0.737h-2.229l-0.737,1.491v3.717l-0.75,0.737l-2.967,2.98
		l-0.755,1.491l-1.486,0.75h-1.489 M697.238,75.495h-1.491 M700.955,74.744h-2.229l-0.75,0.751h-0.738 M702.442,74.744h-1.487
		 M715.838,70.287h-0.751l-2.979,2.967h-2.228l-4.458,1.49h-2.98 M717.313,70.287h-1.475 M730.708,73.254
		c0-0.751-2.855-3.657-4.265-3.981c-1.408-0.326-4.007-0.456-4.007-0.456l-3.633,1.47h-1.491"/>
</g>
<polyline style="fill:none;stroke:#B1B1B1;stroke-width:0.96;stroke-linejoin:round;stroke-miterlimit:10;" points="
	632.527,176.667 631.037,175.914 630.286,175.177 628.056,172.947 626.568,172.197 625.078,171.459 624.42,170.688 624.339,170.709 
	623.601,171.459 622.111,172.197 621.488,172.82 621.361,172.947 619.131,172.947 617.643,172.197 616.907,170.709 616.154,169.218 
	616.154,166.252 615.416,165.501 615.416,164.764 614.666,164.764 613.926,164.014 612.436,164.014 611.699,163.272 
	610.949,161.784 610.949,159.556 610.208,158.067 609.458,158.067 607.231,157.327 607.062,157.453 604.252,159.556 604.14,159.519 
	602.023,158.806 601.883,158.932 556.649,199.722 552.932,207.908 "/>
<g>
	<path style="fill:none;stroke:#B1B1B1;stroke-width:0.96;stroke-linejoin:round;stroke-miterlimit:10;" d="M613.926,225.771
		l-20.09,2.967l-20.816,9.675l-17.858,10.412l-52.807,49.841l43.142,8.187l5.945,4.467 M625.564,266.941
		c0,0,1.471-3.883,2.497-6.361c1.028-2.479-6.7-28.126-6.7-28.126l-2.229-2.967l-5.205-3.717"/>
</g>
<line style="fill:none;stroke:#B1B1B1;stroke-width:0.96;stroke-linejoin:round;stroke-miterlimit:10;" x1="799.886" y1="206.418" x2="827.41" y2="204.93"/>
<line style="fill:none;stroke:#B1B1B1;stroke-width:0.96;stroke-linejoin:round;stroke-miterlimit:10;" x1="779.605" y1="220.757" x2="799.886" y2="206.417"/>
<path style="fill:none;stroke:#B1B1B1;stroke-width:0.96;stroke-linejoin:round;stroke-miterlimit:10;" d="M650.376,177.406v0.75
	h-0.74v2.228h-0.751v0.738l-6.696,2.242 M652.601,178.156h-1.487l-0.737-0.75 M676.41,175.177h-14.884l-4.454,1.49l-2.229,0.739
	l-0.75,0.75h-1.492"/>
<polyline style="fill:none;stroke:#B1B1B1;stroke-width:0.96;stroke-linejoin:round;stroke-miterlimit:10;" points="
	703.933,312.058 667.485,301.645 665.997,300.907 663.017,298.665 660.789,297.178 657.073,293.458 656.319,291.97 655.581,291.231 
	654.092,287.512 653.353,286.762 652.601,286.023 651.115,284.537 643.676,275.612 "/>
<path style="fill:none;stroke:#B1B1B1;stroke-width:0.96;stroke-linejoin:round;stroke-miterlimit:10;" d="M573.762,60.611h0.736
	v-0.737h1.488 M575.987,59.875h0.753l0.739,1.475l0.75,0.754h0.737l0.74,0.737l5.205,6.696l4.471,2.979l0.736,0.739v0.75
	l1.489,1.491v1.487l0.753,0.741l-0.753,2.226v0.753l1.491,0.738l1.487,1.488l0.74,1.491l-0.093,0.093l-0.647,0.645v0.75l2.229,3.72
	l0.75,2.226l-0.75,1.49l-2.229,2.23l2.229,0.75l1.491,0.737v2.98l-0.741,0.737l-2.239,1.491l0.028,0.099l2.952-0.839h1.487
	l0.08,0.081l0.657,0.659v1.488l-1.488,0.75l-2.228,0.742h-0.738l-0.751,1.488l-0.74,1.49v1.488l1.329,0.659l0.162,0.08l1.389-0.689
	l0.1-0.05h0.741l0.736,2.229h-0.736l-0.741,1.488l-0.75,1.491v0.738l0.75,0.751l0.741,1.478v1.488 M570.041,56.146h0.741v-0.742
	 M570.782,55.403l0.75,1.492l0.739,2.979v0.737h1.491 M567.066,44.242v-0.738l0.75-0.741v-0.75 M567.816,42.013l0.738,0.75h0.736
	l0.75,0.741l1.491,1.488v4.458l-0.75,2.238l-0.741,2.229l-0.75,0.737v1.492h0.75 M559.629,32.337h1.491l1.488,1.491v5.205h1.478
	l0.751,0.75v2.229l0.737,0.75l0.75,0.741l0.742,0.738"/>
<path style="fill:none;stroke:#B1B1B1;stroke-width:0.96;stroke-linejoin:round;stroke-miterlimit:10;" d="M647.397,223.529
	l62.482-2.967 M642.189,183.363l-2.229,11.903l0.738,2.227l0.753,1.49l2.979,2.98l1.477,2.966l0.75,4.467l0.74,4.47v6.696
	l-0.74,1.476l0.74,1.491"/>
<g>
	<path style="fill:none;stroke:#B1B1B1;stroke-width:0.96;stroke-linejoin:round;stroke-miterlimit:10;" d="M643.677,275.611v-4.471
		l-0.737-1.487l-0.75-1.491l-0.739-0.739l-0.753-0.737c0,0,0.312-10.471-0.831-12.215c-1.143-1.744-1.849-3.863-4.295-3.312
		c-0.315,2.538-2.087,8.206-2.087,8.206l-0.884,1.537l-1.111,1.23l-2.683,1.575"/>
</g>
<polyline style="fill:none;stroke:#B1B1B1;stroke-width:0.96;stroke-linejoin:round;stroke-miterlimit:10;" points="775.34,85.907 
	751.264,93.741 732.253,92.423 "/>
<polyline style="fill:none;stroke:#B1B1B1;stroke-width:0.96;stroke-linejoin:round;stroke-miterlimit:10;" points="
	642.189,183.363 641.452,182.613 641.452,181.123 640.699,180.384 639.96,179.646 636.244,179.646 634.752,178.893 632.527,176.667 
	"/>
<g>
	<path style="fill:none;stroke:#B1B1B1;stroke-width:0.96;stroke-linejoin:round;stroke-miterlimit:10;" d="M552.933,207.908
		l-63.973-40.166l-5.205-9.675c0,0-27.417-1.294-30.778-2.657c-3.36-1.363-23.045-31.385-24.486-33.658
		c-1.44-2.274-3.583-11.727-2.751-19.484"/>
</g>
<polyline style="fill:none;stroke:#B1B1B1;stroke-width:0.96;stroke-linejoin:round;stroke-miterlimit:10;" points="638.472,67.308 
	639.222,67.308 639.959,68.049 640.699,68.049 642.94,70.287 643.025,70.245 644.43,69.537 645.167,68.799 646.657,68.049 
	648.148,68.049 647.398,66.558 645.907,65.082 645.167,64.329 645.167,63.591 645.907,60.612 646.657,59.124 646.657,55.404 
	645.907,53.179 645.907,51.687 646.657,46.483 645.907,42.763 645.167,36.067 645.167,34.579 644.43,33.829 642.94,32.338 
	642.94,27.883 645.907,25.654 652.602,21.925 "/>
<g>
	<path style="fill:none;stroke:#B1B1B1;stroke-width:0.96;stroke-linejoin:round;stroke-miterlimit:10;" d="M552.933,207.908
		l-75.877,46.874l-63.958,63.974l-19.353,14.88l-78.09,20.828l-7.447,2.979l-4.457,5.208l-2.241,3.717l-42.392,90.757H389.29H587.89
		l7.247,3.72l2.867,0.75h0.314h1.118l2.854-0.75h1.435l0.353,0.136l5.382,2.089l1.432,0.751l0.327-0.049l9.693-1.439l0.521,0.005
		c1.292,0.212,4.152-0.266,15.688-0.902c11.537-0.634,21.279,1.484,21.279,1.484s3.607-5.931,5.231-4.872s4.15,6.354,5.593,6.777
		c1.443,0.424,22.913-15.248,22.913-15.248s6.856,1.059,10.465,0c3.607-1.06,30.489-12.496,38.97-14.402
		c8.479-1.907,15.515-1.483,15.515-1.483l5.425-0.033c0,0,9.259-0.614,11.896-0.007c4.529,1.044,16.716,8.14,16.716,8.14"/>
	<path style="fill:none;stroke:#B1B1B1;stroke-width:0.96;stroke-linejoin:round;stroke-miterlimit:10;" d="M573.253,562.828
		c0,0,5.993-2.603,11.96-2.603c5.966,0,37.244-1.44,46.038-3.602c8.794-2.159,16.896-8.001,16.896-8.001"/>
	<path style="fill:none;stroke:#B1B1B1;stroke-width:0.96;stroke-linejoin:round;stroke-miterlimit:10;" d="M711.359,371.712
		c0,0-19.796,6.667-20.963,6.753c-1.168,0.085-14.239,1.837-16.049,1.174c-1.809-0.664-40.049-14.104-41.573-14.896
		c-1.524-0.791-1.379-18.845-1.379-18.845l-2.645-0.073l-0.329-4.486c0,0-0.195-10.682-2.058-12.097
		c-1.863-1.415-6.826,2.929-6.826,2.929l-2.086,7.582l-4.41,0.511l-16.963-6.628h-98.72"/>
</g>
<path style="fill:none;stroke:#B1B1B1;stroke-width:0.96;stroke-linejoin:round;stroke-miterlimit:10;" d="M705.422,169.972
	l34.961-0.754 M740.383,169.218h8.925l2.978,2.241l0.738,0.738h2.229l5.205,0.75l0.75,0.742 M761.208,173.689l0.74-0.742l2.979-0.75
	v-0.738l4.455-3.717h0.75l2.979-1.49h2.968 M776.08,166.252l18.6,1.49"/>
<line style="fill:none;stroke:#B1B1B1;stroke-width:0.96;stroke-linejoin:round;stroke-miterlimit:10;" x1="643.677" y1="129.793" x2="642.94" y2="132.031"/>
<polyline style="fill:none;stroke:#B1B1B1;stroke-width:0.96;stroke-linejoin:round;stroke-miterlimit:10;" points="
	598.307,119.377 599.043,123.848 599.794,126.826 600.533,129.053 602.774,129.793 602.774,130.543 601.286,131.281 
	601.286,133.523 601.817,134.054 602.024,134.26 603.511,134.26 "/>
<polyline style="fill:none;stroke:#B1B1B1;stroke-width:0.96;stroke-linejoin:round;stroke-miterlimit:10;" points="
	653.353,131.281 651.115,130.543 651.035,130.624 650.375,131.281 648.884,132.031 647.658,132.031 647.398,132.031 
	646.657,130.543 643.676,129.793 "/>
<polygon style="fill:#ABD5FF;stroke:#ABD5FF;stroke-width:5;stroke-linejoin:round;stroke-miterlimit:10;" points="801.374,859.584 
	800.624,863.316 799.885,865.542 798.399,867.033 796.907,866.283 795.419,866.283 793.19,867.033 796.168,867.033 796.907,867.771 
	797.658,867.771 798.399,869.262 800.624,871.487 801.374,872.979 802.116,874.466 802.865,876.696 802.116,880.424 
	802.116,884.141 799.885,886.37 796.168,885.633 799.135,887.861 799.885,888.6 801.374,887.109 801.374,888.6 799.135,893.806 
	799.135,897.536 797.658,899.012 796.168,899.762 796.907,900.503 796.907,901.991 796.168,902.741 794.678,902.741 
	793.927,901.991 793.19,900.503 791.7,899.012 790.21,899.012 787.983,896.783 787.983,894.558 787.246,893.806 785.753,890.836 
	785.002,890.087 784.265,890.836 783.528,891.578 782.038,891.578 781.286,893.067 780.548,895.295 779.058,897.536 776.08,896.783 
	776.08,899.012 777.57,901.253 779.058,902.741 781.286,902.741 780.548,899.762 781.286,898.274 782.775,898.274 783.528,900.503 
	784.265,901.253 787.246,901.253 788.733,902.741 783.528,904.97 782.038,904.219 781.286,904.219 780.548,905.708 779.798,905.708 
	777.57,906.461 773.112,907.199 770.874,908.687 776.829,912.406 779.798,913.896 782.775,912.406 784.265,911.666 785.002,910.916 
	785.753,910.916 786.494,910.177 786.494,908.687 787.246,907.949 788.733,905.708 789.474,905.708 789.474,906.461 
	790.961,906.461 792.452,907.199 792.452,906.461 793.927,907.949 794.678,910.177 795.419,911.666 796.907,912.406 
	798.399,911.666 801.374,909.428 802.865,909.428 802.865,913.157 801.374,915.383 800.624,916.123 798.399,919.104 
	797.658,919.853 796.907,921.328 799.135,922.082 801.374,923.569 804.34,925.062 805.093,927.286 805.093,928.778 805.833,930.265 
	805.093,931.006 803.604,931.757 802.865,931.757 802.116,928.778 801.374,927.286 799.885,928.027 797.658,928.778 
	796.907,929.516 797.658,931.006 798.399,932.494 799.135,933.233 797.658,934.722 796.907,932.494 795.419,931.757 
	794.678,932.494 793.927,934.722 792.452,933.233 791.7,933.233 787.246,939.191 787.246,939.928 787.983,941.419 787.246,941.419 
	787.246,942.169 785.002,942.169 785.002,945.136 784.265,945.886 783.528,947.377 784.265,949.606 784.265,951.832 
	783.528,953.323 781.286,954.073 781.286,954.811 782.775,954.811 782.038,955.549 779.058,957.04 779.058,957.79 780.548,959.281 
	779.798,960.02 778.321,961.507 778.321,962.247 777.57,962.998 779.058,964.485 779.058,965.978 777.57,968.205 776.829,969.694 
	775.341,970.432 773.853,971.181 772.363,971.181 770.132,969.694 770.874,971.181 770.874,971.922 772.363,972.66 772.363,974.901 
	771.624,979.357 771.624,985.315 770.132,987.543 767.154,986.804 765.667,988.293 760.458,991.259 758.23,992.748 756.741,994.989 
	755.253,997.956 754.512,1000.197 752.286,1001.673 750.795,1002.426 749.308,1001.673 747.817,1001.673 747.08,1000.197 
	747.08,997.217 746.328,997.217 744.837,996.468 744.837,995.728 744.099,994.989 744.099,994.239 744.837,993.501 744.099,992.748 
	743.349,992.01 742.608,991.259 741.871,989.772 741.122,986.804 740.382,986.052 738.892,986.804 736.663,987.543 732.934,986.804 
	732.934,983.085 732.196,985.315 730.708,986.052 729.216,986.052 727.729,987.543 726.989,988.293 725.5,989.031 724.008,988.293 
	722.521,987.543 722.521,990.522 718.064,990.522 715.837,991.259 716.575,992.01 712.108,997.217 709.879,998.706 706.163,998.706 
	704.672,999.447 705.421,1002.426 704.672,1002.426 703.184,1003.163 701.693,1003.914 700.956,1005.405 700.956,1006.881 
	701.693,1006.881 702.442,1007.631 702.442,1008.371 700.956,1009.122 700.216,1008.371 699.463,1007.631 697.976,1008.371 
	696.488,1008.371 695.008,1009.122 694.258,1008.371 692.768,1005.405 691.281,1004.651 689.8,1003.914 689.05,1003.914 
	687.564,1003.163 686.083,1003.163 685.333,1001.673 684.596,1000.935 683.842,999.447 683.842,1000.935 683.106,1002.426 
	683.106,1003.914 683.842,1006.144 690.542,1012.102 697.239,1015.067 698.726,1016.556 697.976,1018.784 695.747,1018.046 
	692.03,1016.556 692.03,1017.305 692.768,1017.305 692.768,1018.784 692.03,1019.534 690.542,1020.273 689.8,1021.025 
	689.05,1021.025 687.564,1020.273 686.083,1019.534 684.596,1020.273 686.823,1026.231 686.083,1026.231 683.106,1026.97 
	681.617,1026.97 683.106,1027.722 668.976,1041.113 662.277,1045.57 660.79,1047.058 659.297,1049.287 657.81,1051.525 
	655.581,1053.004 653.353,1053.754 654.092,1054.492 654.092,1056.733 652.602,1063.429 652.602,1070.116 651.864,1072.355 
	646.825,1080.904 654.41,1080.904 654.581,1080.563 656.318,1076.071 656.318,1064.908 657.072,1062.68 661.527,1055.245 
	668.976,1048.547 670.464,1047.796 671.942,1048.547 671.942,1046.321 677.148,1042.592 678.638,1041.85 680.125,1041.85 
	682.356,1042.592 683.842,1043.341 686.083,1042.592 683.106,1042.592 682.356,1041.85 682.356,1039.625 679.388,1037.383 
	680.125,1037.383 680.877,1036.646 681.617,1035.893 681.617,1034.417 683.106,1035.893 683.842,1033.667 683.842,1032.926 
	685.333,1034.417 686.083,1035.155 686.823,1034.417 686.083,1032.176 691.281,1029.209 693.518,1028.459 696.488,1029.209 
	697.239,1030.688 697.976,1032.176 698.726,1032.176 700.956,1031.438 700.956,1028.459 700.216,1026.97 698.726,1026.97 
	699.463,1026.231 697.976,1024.005 700.216,1024.005 706.163,1024.742 706.163,1021.025 706.901,1019.534 709.142,1018.784 
	709.879,1018.046 710.63,1016.556 711.368,1015.818 714.346,1016.556 712.108,1012.839 710.63,1009.122 710.63,1007.631 
	712.108,1007.631 714.346,1009.122 714.346,1006.881 713.596,1005.405 713.596,1003.914 715.086,1001.673 716.575,1000.197 
	718.803,999.447 720.292,1000.197 721.783,1000.935 721.783,999.447 721.042,998.706 721.042,996.468 721.783,995.728 
	723.272,995.728 724.008,994.989 724.008,994.239 724.762,994.239 725.5,993.501 726.25,993.501 729.216,991.259 730.708,990.522 
	732.934,991.259 734.424,992.01 735.174,992.748 736.663,993.501 738.142,994.239 737.405,994.989 738.142,995.728 741.122,996.468 
	740.382,997.217 738.892,999.447 740.382,999.447 742.608,1001.673 744.099,1001.673 744.099,1002.426 743.349,1003.163 
	743.349,1003.914 746.328,1003.914 747.817,1003.163 747.08,1006.144 744.837,1008.371 742.608,1009.86 740.382,1009.86 
	740.382,1012.102 741.122,1012.839 741.871,1013.576 742.608,1013.576 743.349,1011.347 744.837,1011.347 746.328,1012.102 
	747.08,1012.839 748.554,1013.576 750.044,1012.839 749.308,1012.839 747.817,1012.102 747.817,1010.609 748.554,1006.144 
	748.554,1004.651 755.253,1004.651 756.003,1003.914 757.492,1000.197 758.23,998.706 760.458,995.728 761.95,994.989 
	763.438,994.989 764.174,992.748 771.624,990.522 773.853,988.293 773.853,986.804 774.59,986.052 775.341,984.563 775.341,980.107 
	776.08,979.357 776.829,978.618 776.829,977.127 776.08,976.39 775.341,977.127 774.59,975.64 775.341,974.149 775.341,972.66 
	776.08,971.181 776.829,971.922 778.321,974.149 778.321,971.922 777.57,971.181 778.321,971.181 779.798,970.432 780.548,969.694 
	781.286,969.694 783.528,970.432 784.265,970.432 783.528,968.205 784.265,967.453 785.753,968.205 786.494,969.694 
	787.983,965.978 787.983,961.507 788.733,962.247 790.21,962.247 790.21,960.769 788.733,960.769 789.474,960.02 789.474,958.527 
	788.733,957.79 787.983,957.79 788.733,956.302 792.452,955.549 792.452,960.02 794.678,960.02 795.419,960.769 795.419,961.507 
	802.865,966.715 807.32,970.432 808.811,971.181 808.074,970.432 808.074,969.694 808.811,968.205 811.04,969.694 814.756,971.181 
	818.486,971.922 820.714,971.181 815.506,966.715 813.278,966.715 811.791,965.978 810.298,965.978 809.548,963.736 
	808.074,964.485 807.32,964.485 806.582,962.998 806.582,962.247 807.32,961.507 808.811,960.769 808.811,959.281 808.074,958.527 
	804.34,955.549 802.116,955.549 801.374,954.811 801.374,952.582 799.885,949.606 799.135,948.115 799.135,946.627 800.624,944.398 
	803.604,945.136 807.32,947.377 810.298,948.115 811.791,947.377 811.04,945.886 808.811,942.907 808.074,941.419 807.32,939.928 
	806.582,938.44 805.093,937.702 805.093,936.961 805.833,936.211 805.833,935.474 806.582,934.722 807.32,935.474 810.298,935.474 
	810.298,936.961 809.548,937.702 813.278,939.191 814.756,939.191 816.245,936.961 815.506,936.211 815.506,935.474 
	814.019,933.982 814.019,933.233 814.756,932.494 814.756,931.757 815.506,930.265 816.245,928.778 816.245,928.027 
	815.506,927.286 814.019,928.027 813.278,928.027 812.528,926.536 811.791,925.062 811.791,924.307 812.528,922.82 814.756,922.082 
	813.278,919.853 812.528,919.104 811.04,919.104 811.791,920.591 811.04,921.328 809.548,920.591 809.548,918.361 810.298,917.611 
	809.548,916.874 808.074,915.383 806.582,913.896 806.582,913.157 807.32,912.406 808.074,911.666 807.32,910.916 806.582,910.916 
	805.833,910.177 805.093,910.177 804.34,909.428 804.34,907.199 805.833,907.199 809.548,908.687 811.791,909.428 814.019,909.428 
	816.245,908.687 817.736,907.949 816.998,907.199 815.506,907.949 813.278,907.199 811.791,906.461 811.04,904.219 809.548,904.97 
	809.548,901.991 808.074,903.481 806.582,901.991 806.582,901.253 805.833,900.503 804.34,900.503 804.34,899.762 805.093,896.045 
	805.833,895.295 806.582,893.806 807.32,892.316 808.074,893.806 810.298,894.558 811.04,896.045 811.791,896.045 811.791,894.558 
	812.528,890.836 813.278,890.836 814.019,890.087 814.019,889.35 813.278,889.35 812.528,888.6 813.278,887.861 814.019,887.109 
	814.756,886.37 813.278,885.633 811.791,883.393 811.791,882.654 813.278,881.903 811.791,881.162 809.548,880.424 808.811,879.675 
	807.32,875.207 805.093,872.237 803.604,870.75 803.604,869.262 804.34,868.521 804.34,867.033 802.865,865.542 802.865,862.563 
	803.604,861.075 803.604,859.584 802.865,857.358 "/>
<path style="fill:none;stroke:#B1B1B1;stroke-width:0.96;stroke-linejoin:round;stroke-miterlimit:10;" d="M627.628,653.6
	l1.304,5.48l1.227,4.321v6.121c0,0-1.473,3.24,0,5.041c1.475,1.801,4.175,0.36,3.931,2.16c-0.246,1.801-1.935,8.644,0.016,12.243
	c1.948,3.602,4.159,7.202,6.124,10.083c1.963,2.881,8.84,25.435,9.577,28.921c0.736,3.486,10.068,31.213,10.068,31.213l6.877,19.085
	l6.386,13.323c0,0,74.47,60.238,78.399,61.025c3.93,0.784,49.756,7.449,49.756,7.449"/>
<path style="fill:none;stroke:#B1B1B1;stroke-width:0.96;stroke-linejoin:round;stroke-miterlimit:10;" d="M861.399,711.197
	c-3.603,0-39.562-2.024-41.182-3.074c-1.621-1.048-20.489-4.571-27.092-6.434c-3.293-0.93-20.64-8.968-20.64-8.968l-6.806-3.732
	c-2.734,2.866-9.749,9.085-15.279,11.315c-5.291,2.134-10.513,0.398-11.433,2.779c-0.921,2.382-0.921,3.809-4.602,6.189
	c-3.684,2.381-19.791-5.73-19.791-5.73s-6.445,1.896-6.445,11.185c0,9.289-2.76,15.002-3.681,17.86
	c-0.921,2.855,1.911,19.964,1.911,19.964l3.145,18.958l7.192,15.878c0,0,3.847,9.387,10.036,18.726
	c2.289,3.453,36.254,9.998,36.254,9.998"/>
<path style="fill:none;stroke:#B1B1B1;stroke-width:0.96;stroke-linejoin:round;stroke-miterlimit:10;" d="M734.998,839.971
	c0,0,2.576-7.157,5.323-11.532c2.747-4.374,8.071-10.339,8.071-10.339s11.504-0.795,14.595-1.988
	c3.091-1.192,16.485-15.508,16.999-14.995c0.517,0.512,4.465,0.282,6.354-0.115c1.888-0.397,17.514,0.397,21.979,0
	c4.464-0.397,7.383-6.23,7.383-6.23h8.301l7.409-35.688h54.113"/>
<path style="fill:none;stroke:#B1B1B1;stroke-width:0.96;stroke-linejoin:round;stroke-miterlimit:10;" d="M812.511,594.83
	c-2.191,1.73-9.063,8.882-9.063,8.882l-8.953-4.737l-7.877,8.035c0,0-4.313-1.602-6.376,0.984c-1.687,4.105-4.876,1.667-4.876,1.667
	s-3.187,3.646-3.563,2.734c-0.375-0.911-5.813-7.595-6.938-8.757c-1.125-1.163-4.372,3.187-4.372,3.187l-5.02,7.104l-0.104,0.168
	l-1.031,0.736l-1.545,2.979l-1.029,0.742l-1.033,0.75l-3.609,0.736h-1.031l-0.511,0.75l-2.584,3.717l-24.413,22.137l-90.265,6.898
	l-0.689,0.499c-0.689-0.578-29.832-48.411-42.415-93.816c-4.217,0.376-8.94,1.518-11.96,2.602
	c-14.26-51.499-28.935-105.116-28.935-105.116"/>
<path style="fill:none;stroke:#B1B1B1;stroke-width:0.96;stroke-linejoin:round;stroke-miterlimit:10;" d="M728.037,70.086
	l-2.222-6.905l0.543-17.47l-23.978-2.404h-2.205l-1.891,3.096v7.009c0,0,4.096,7.318,0,7.318c-4.094,0-7.872,0.696-8.029,0
	c-0.157-0.697-2.846-6.969-3.548-6.969c-0.703,0-4.505-2.244-4.505-2.244l-6.592-5.114v-1.702l-9.763-1.394
	c0,0,4.257-3.136,4.805-4.53c0.55-1.393,2.753-1.276,2.753-1.276l0.945-5.344"/>
<path style="fill:none;stroke:#B1B1B1;stroke-width:0.96;stroke-linejoin:round;stroke-miterlimit:10;" d="M603.511,134.26h0.74
	v2.229l-0.333,0.296c-0.851-0.252-12.231,0.52-13.254-0.488c-1.021-1.008-2.383-1.008-2.383-1.008s-2.384-8.314-3.917-5.795
	c-1.533,2.52-2.384,5.543-3.576,7.055c-1.192,1.512-3.405,2.268-3.405,2.268s-6.13,6.047-2.555,9.574
	c3.577,3.527,3.917,3.527,7.152,6.047c3.234,2.519,13.963,9.826,13.963,9.826"/>
<path style="fill-rule:evenodd;clip-rule:evenodd;fill:#ABD5FF;" d="M734.216,47.751c1.692,0.564,1.13,1.128,1.13,1.128
	s2.256-1.128,2.819-0.564c0.565,0.564,1.693,1.692,1.693,2.821c0,1.128-5.078,4.512-6.205,4.512c-1.128,0-3.385,0.564-3.385,0.564
	l-1.693,1.129c0,0-5.64,0.564-6.769,0.564c-1.128,0-3.948,1.128-4.514,0c-0.563-1.128,0-3.384,0-3.384s1.129-3.385-3.385-3.385
	h-9.024c0,0-3.948,0.564-4.514,0c-0.563-0.564-1.691-1.129-1.691-1.129s1.691-0.564,1.691-1.692s-0.563-1.128-0.563-1.692V46.06
	v-2.257c0,0-2.257,1.693-2.82,1.693c-0.564,0-1.128-0.564-1.128-1.693c0-1.128,0.563-2.256,1.691-2.82
	c1.129-0.563,2.257-0.563,2.82-1.128c0.565-0.564,1.128-2.821,1.693-2.821h1.691c0.565,0,1.692-1.128,1.692-1.128
	s1.128,1.128,2.821,1.128c1.691,0,6.205-0.564,6.769-0.564c0.564,0,2.256,0,2.821,0.564c0.563,0.564,1.691,1.693,1.691,1.693
	L734.216,47.751z"/>
<path style="fill:none;stroke:#B1B1B1;stroke-width:0.96;stroke-linejoin:round;stroke-miterlimit:10;" d="M808.076,487.438
	l-0.638,9.469c0,0-7.131,2.513-7.131,7.342c-3.354,1.697-11.745,8.999-14.68,11.085c-2.938,2.085-42.643,36.503-44.183,35.46
	c-1.54-1.042-37.542-17.123-40.058-17.471l-0.694-0.12c-2.209-0.375-3.858-1.069-9.235-0.067s-7.889,3.999-12.676,6.586
	c-4.203,2.272-8.229,0.558-8.229,0.558l-1.366-0.91l-0.75-1.488l-3.199-0.412h-1.487"/>
<path style="fill:none;stroke:#B1B1B1;stroke-width:0.96;stroke-linejoin:round;stroke-miterlimit:10;" d="M716.96,314.279
	l4.959,5.101c0,0-5.579,4.462-7.439,7.651c-1.86,3.188-4.34,5.738-4.34,7.651s-3.721,7.014-4.34,8.289
	c-0.62,1.276-1.861,1.276-1.24,3.826c0.62,2.55,2.479,7.014,4.339,10.839c1.861,3.827,3.101,10.84,4.341,12.752
	c1.24,1.913,0,11.478,0,11.478s-1.24,2.551-1.24,4.463c0,1.913,2.48,1.913,3.101,2.551c0.62,0.637,1.24,0,1.86,2.55
	c0.619,2.55-1.24,4.463,1.858,5.101c3.101,0.638,26.041-3.189,27.901-3.189c1.859,0,3.72-1.912,4.34-0.636
	c0.62,1.274-2.48,1.912-2.48,1.912s6.82,1.913,8.681,1.913c1.859,0,4.34,3.826,4.34,3.826s2.479,0.638,4.34,1.912
	c1.86,1.276,4.96,7.014,7.44,8.289c2.479,1.276,10.539,5.102,10.539,5.102s-1.238,3.825,0,5.1c1.24,1.276,2.48,3.189,2.48,5.739
	c0,2.551,3.72,10.202,3.72,10.202s-0.62,1.913,0,3.188c0.62,1.276-2.479,2.551,0,5.74c2.481,3.187,3.721,5.738,4.341,7.651
	c0.619,1.913,0,4.463,0,4.463s3.101,3.188,3.721,4.464c0.62,1.274,1.858,1.912,1.858,3.187c0,1.276-1.858,1.276,0,3.189
	c1.86,1.913,3.722,5.1,3.722,6.375s0.62,4.464,0.62,5.738c0,1.275,1.238,5.103,1.238,5.103s0.62-0.639,0,3.824
	c-0.62,4.465-0.62,5.101-0.62,6.376v5.739c0,1.274-2.479,4.463-3.1,5.102c-0.62,0.637-1.24,3.187-1.86,4.462
	s-1.238,3.188-1.238,3.827v8.288c0,0.638-1.24,3.825-0.62,4.464c0.62,0.637,2.479,3.825,2.479,3.825l0.62,3.188l1.861,3.826
	l0.62,5.738c0,0,0.62,4.464,1.238,5.738c0.62,1.275,0.62,1.275,1.86,2.551c1.241,1.275,4.34,1.275,4.34,3.825
	c0,2.551-1.239,3.188,0,5.103c1.24,1.913,1.24,5.1,1.861,7.013c0.62,1.913,1.24,7.014,1.24,7.014l1.238,1.913
	c0,0-0.618,0.638-1.238,1.913c-0.62,1.274-1.24,5.102-1.24,6.376v3.188c0,0.637-1.241,2.55-1.241,3.188s0.62,2.551,0.62,2.551
	l10.541-4.464h3.719h4.341c0,0,3.101,2.551,3.721,4.464c0.62,1.912,3.72,4.463,4.34,5.738s5.58,6.376,6.2,6.376
	s2.479,1.913,3.099,2.551c0.621,0.639,3.721,3.188,3.721,3.188s3.721,2.551,6.819,3.188c3.101,0.638,4.96,0,4.96,0l6.821-1.913
	c0,0,0-1.275,2.479-0.638c2.48,0.638,1.86-0.638,3.721,1.275c1.859,1.913,2.479,3.827,3.72,5.738c1.239,1.913,1.239,2.551,3.1,4.465
	l1.86,1.911c0,0-1.24,2.551,0.62,3.826c1.859,1.275,4.96,3.188,4.96,3.188v2.55c0,0.638,0.62,1.276,0,2.551l-0.62,1.275
	c-0.62,1.275-0.62,3.825,0.62,3.825s2.479,1.275,1.859,2.551c-0.619,1.275,1.86,0,0,1.275c-1.859,1.275-2.479,2.55-1.239,3.825
	c1.239,1.275,2.479,3.188,3.1,3.826c0.621,0.638,1.24,4.463,1.86,5.738c0.619,1.275,2.479,3.188,2.479,3.188v3.825
	c0,0-1.86,0.638,0,1.913s3.72,1.275,3.101,2.551c-0.62,1.274-0.62,1.274-1.24,2.551c-0.62,1.274-2.48,4.464-2.48,4.464
	s-0.62-1.276-1.24,0c-0.619,1.273-3.72,1.273-4.34,1.273c-0.619,0-2.479,2.551-3.72,3.188s-0.62,1.275-3.72,1.275
	c-3.101,0-6.82-1.275-9.92,0c-3.101,1.275-4.96,1.275-7.44,1.275c-2.479,0-8.68,1.913-10.54,2.55c-1.859,0.638-1.859,0-1.859,0
	s-3.721,3.188-3.102,3.826c0.62,0.638,3.721,2.551,3.721,3.188v7.014c0,1.274,1.859,9.563,2.479,10.201
	c0.621,0.638,2.481,3.188,1.861,5.739s-1.861,3.825-0.62,6.376c1.24,2.551,4.34,2.551,5.58,4.464
	c1.239,1.912,7.439,7.65,8.679,10.839c1.241,3.188,1.861,5.101,3.101,6.376c1.24,1.275,3.101,2.551,3.101,2.551
	s-0.62,4.463,0.62,5.101c1.239,0.638,4.34,3.825,4.34,3.825l2.479,4.464c0,0,0.62,5.738,0.62,6.376
	c0,0.639,4.34,311.542,4.34,311.542"/>
<polyline style="fill:none;stroke:#ABD5FF;stroke-width:5;stroke-linejoin:round;stroke-miterlimit:10;" points="802.75,875.453 
	802.75,865.743 801.983,858.899 801.983,856.608 802.75,852.81 802.75,850.531 801.983,845.966 801.227,844.454 801.983,841.409 
	801.983,839.89 804.259,835.319 805.028,833.045 805.028,821.632 805.782,820.878 806.549,819.354 806.549,817.079 804.259,817.079 
	801.983,812.511 802.75,808.711 806.549,799.589 807.304,795.023 808.073,791.223 807.304,782.103 805.782,777.533 801.983,770.689 
	801.227,766.891 801.227,764.612 802.75,761.567 802.75,754.725 801.983,750.926 800.458,747.123 798.185,744.849 788.306,739.514 
	782.985,734.959 776.139,731.157 773.097,728.869 770.052,725.07 769.295,720.516 770.052,712.146 770.052,709.872 769.295,707.581 
	767.02,705.304 763.975,699.983 762.451,695.414 763.205,691.615 767.02,688.57 771.573,687.816 773.851,686.292 780.694,672.604 
	782.985,671.081 784.494,669.56 789.062,669.56 790.583,668.049 791.338,665.762 790.583,663.482 788.306,660.438 787.538,658.917 
	787.538,655.886 788.306,654.36 790.583,651.315 792.861,647.517 792.861,645.239 792.107,642.951 791.338,640.673 791.338,635.351 
	790.583,633.072 789.816,631.552 787.538,630.027 785.261,629.262 782.216,627.752 780.694,626.229 779.174,625.462 
	776.896,626.229 776.139,626.982 776.139,628.506 775.372,629.262 775.372,630.027 773.851,630.784 771.573,630.784 
	770.818,631.552 770.052,632.307 759.406,633.072 757.885,633.072 754.086,636.874 751.808,638.395 750.284,637.628 
	748.764,636.104 746.485,636.104 744.964,637.628 744.207,639.906 743.44,641.428 741.162,642.194 739.642,641.428 738.887,639.906 
	738.117,637.628 738.117,635.351 737.363,634.583 735.843,633.072 734.318,631.552 732.798,630.784 731.273,630.027 
	727.475,622.417 725.954,621.662 724.442,620.908 720.631,620.908 719.876,622.417 719.876,624.707 718.353,626.982 
	716.074,625.462 715.308,623.94 716.074,618.617 716.074,617.095 710.755,611.773 703.911,606.451 703.153,605.696 702.387,603.419 
	700.108,601.897 698.588,600.374 697.063,599.607 695.542,595.808 695.542,585.162 693.265,582.888 690.987,582.888 
	689.466,584.408 687.945,585.162 684.9,585.162 684.143,583.642 685.667,576.04 684.9,574.52 680.344,574.52 678.823,573.767 
	678.066,572.995 678.066,572.241 677.299,571.475 677.299,568.442 676.545,567.677 674.254,566.151 668.935,560.074 
	666.656,556.275 665.133,553.23 663.611,546.388 662.857,544.108 661.333,542.588 652.966,534.975 649.934,531.176 644.613,522.811 
	643.847,518.254 642.323,515.977 640.045,515.21 636.246,515.21 633.968,514.455 633.201,512.165 632.447,510.644 631.68,509.888 
	630.923,509.133 630.169,509.133 628.647,510.644 627.881,511.41 625.603,511.41 625.603,503.81 624.079,503.043 619.526,502.289 
	618.001,502.289 616.481,500.768 614.957,498.489 614.203,496.967 611.158,494.679 610.392,493.921 611.912,492.4 608.88,490.876 
	605.068,488.601 602.036,486.323 600.516,484.032 598.991,482.512 599.749,481 600.516,479.479 601.27,477.955 600.516,475.667 
	599.749,471.865 599.749,468.833 600.516,466.546 602.036,462.746 602.036,460.469 602.794,460.469 604.314,458.944 604.314,456.67 
	603.561,453.625 602.794,452.854 602.794,442.979 600.516,442.212 600.516,441.458 599.749,440.691 598.991,439.18 598.991,437.659 
	598.237,436.135 598.991,433.856 598.991,432.336 599.749,430.812 598.991,423.968 598.991,420.169 598.237,417.878 
	598.237,417.125 597.471,416.37 595.946,414.846 595.946,414.079 595.192,413.325 590.626,409.526 589.869,408.002 589.103,406.481 
	588.349,404.203 588.349,401.158 589.103,399.638 589.103,398.881 589.869,397.359 589.869,395.836 588.349,393.548 
	588.349,384.426 589.103,384.426 589.103,383.672 589.869,382.902 589.869,380.627 590.626,379.87 590.626,379.104 591.394,378.349 
	595.946,373.78 596.717,373.026 596.717,372.259 598.237,370.735 598.237,367.703 597.471,366.937 597.471,366.182 596.717,365.416 
	596.717,361.616 597.471,360.093 597.471,356.294 598.237,354.77 598.237,354.016 598.991,353.25 598.991,352.494 598.237,350.971 
	598.237,350.217 599.749,347.172 601.27,344.894 602.036,341.083 602.036,339.573 604.314,336.528 605.068,335.005 605.068,326.64 
	606.593,325.116 608.113,322.084 615.715,313.716 617.235,310.671 618.759,306.105 619.526,303.827 621.034,303.073 
	622.559,302.307 626.357,299.274 629.402,294.705 630.169,293.185 631.68,291.661 631.68,289.386 632.447,288.619 632.447,287.861 
	636.246,281.784 636.246,281.018 635.492,267.33 635.492,265.807 636.246,265.807 637,265.052 637,261.253 635.492,258.208 
	636.246,257.454 636.246,256.685 637.77,255.163 638.523,252.886 640.814,246.042 641.568,246.042 641.568,245.287 642.323,244.521 
	643.09,242.997 641.568,239.965 641.568,235.398 642.323,233.121 643.09,231.597 644.613,230.83 642.323,227.798 641.568,225.51 
	641.568,220.954 643.09,217.155 643.847,214.864 643.847,210.312 643.09,205.742 642.323,201.177 640.814,198.145 637.77,195.099 
	637,193.575 636.246,191.301 638.523,179.134 637.77,178.367 "/>
<polyline style="fill:none;stroke:#ABD5FF;stroke-width:5;stroke-linejoin:round;stroke-miterlimit:10;" points="628.648,172.29 
	627.88,170.012 625.602,167.721 625.602,163.168 624.845,160.877 624.845,154.033 624.08,152.522 621.035,151.001 620.281,148.71 
	622.558,149.479 623.326,149.479 624.08,148.71 624.845,147.956 624.845,144.157 625.602,144.157 626.357,144.911 626.357,145.679 
	627.125,145.679 627.88,144.157 627.88,141.112 628.648,139.589 630.168,138.834 631.679,138.834 632.448,138.067 632.448,135.789 
	633.202,135.789 634.724,135.035 637,132.745 637,131.224 636.247,129.7 636.247,128.191 637,127.425 637.769,127.425 
	638.523,128.191 639.292,128.945 640.814,128.191 639.292,126.668 640.044,124.38 641.569,119.057 641.569,116.024 640.044,110.702 
	640.044,106.136 638.523,106.136 637.769,103.091 637.769,97.769 636.247,97.015 636.247,96.247 635.493,95.49 636.247,94.724 
	638.523,93.97 640.044,93.97 640.044,91.691 639.292,90.925 638.523,90.17 637.769,90.17 639.292,90.17 639.292,89.403 
	640.044,89.403 638.523,87.893 640.814,85.602 640.814,84.081 640.044,83.327 640.044,80.282 640.814,79.524 641.569,78.758 
	643.089,78.758 643.846,78.004 644.614,78.004 645.369,74.205 646.134,74.205 646.891,73.435 647.645,72.681 648.413,71.16 
	649.167,71.16 649.933,70.402 652.965,70.402 653.736,69.636 653.736,68.115 654.49,68.115 658.29,61.271 659.812,59.747 
	659.812,58.239 660.58,57.469 661.333,55.948 662.1,55.194 663.612,55.948 665.903,55.948 665.132,55.194 665.132,54.424 
	665.903,53.67 668.934,54.424 672.747,54.424 675.779,53.67 677.298,50.625 677.298,47.581 680.343,47.581 681.869,46.072 
	681.869,44.548 680.343,43.781 680.343,43.027 681.098,42.261 681.869,42.261 682.623,43.027 683.388,43.027 683.388,40.749 
	684.901,37.704 686.42,36.185 686.42,33.139 685.667,33.139 685.667,32.381 686.42,31.615 687.946,31.615 689.465,30.86 
	689.465,30.094 690.219,28.582 690.988,29.336 692.51,28.582 695.543,27.062 695.543,26.295 694.79,24.771 694.79,22.493 
	697.063,20.218 697.063,19.448 "/>
<polyline style="fill:none;stroke:#ABD5FF;stroke-width:5;stroke-linejoin:round;stroke-miterlimit:10;" points="637.77,178.367 
	637.77,176.843 637,176.089 636.247,175.335 632.448,175.335 630.922,174.564 628.648,172.291 626.358,170.765 624.08,168.488 
	622.558,167.721 621.035,166.967 620.281,166.2 619.527,166.967 618.001,167.721 617.236,168.488 614.958,168.488 613.437,167.721 
	611.913,166.2 611.913,162.401 611.159,160.877 610.391,160.124 609.637,159.356 608.114,159.356 607.36,158.598 606.592,157.078 
	606.592,154.8 605.834,153.279 605.069,153.279 602.793,152.522 599.749,154.8 597.47,154.033 596.716,152.522 597.47,150.234 
	602.037,149.478 602.037,147.957 598.992,145.679 598.238,144.157 598.992,142.634 598.992,141.112 599.749,140.358 
	598.992,138.834 598.992,137.313 597.47,135.035 598.238,133.512 598.992,132.745 599.749,131.223 599.749,128.945 597.47,128.945 
	596.716,128.191 596.716,125.9 598.238,125.146 598.238,124.38 595.947,123.624 595.193,121.347 594.425,118.303 593.671,113.734 
	593.671,112.213 592.915,110.702 592.148,109.936 592.148,109.18 592.915,107.657 593.671,106.136 594.425,106.136 593.671,103.858 
	592.915,103.858 591.394,104.612 589.87,103.858 589.87,102.337 590.626,100.813 591.394,99.292 592.148,99.292 594.425,98.535 
	595.947,97.769 595.947,96.247 595.193,95.49 593.671,95.49 590.626,96.247 592.915,94.723 593.671,93.97 593.671,90.925 
	592.148,90.17 589.87,89.403 590.626,88.646 591.394,87.126 592.915,85.602 592.148,83.327 589.87,79.524 589.87,78.758 
	590.626,78.004 589.87,76.479 588.348,74.959 586.825,74.205 586.825,73.435 587.594,71.159 586.825,70.402 586.825,68.882 
	585.303,67.357 585.303,66.591 584.549,65.837 579.226,62.792 574.662,55.948 573.904,55.194 573.15,55.194 572.382,54.424 
	571.628,52.917 569.337,52.917 569.337,53.67 567.06,53.67 567.06,52.917 566.305,49.871 565.54,48.348 565.54,49.104 
	564.014,49.104 564.014,47.58 564.783,46.826 565.54,44.548 566.305,42.261 566.305,37.704 564.783,36.184 564.014,35.426 
	563.26,35.426 562.506,34.659 562.506,35.426 561.741,36.184 561.741,36.938 560.983,36.184 560.215,35.426 559.461,34.659 
	559.461,32.381 558.696,31.615 557.184,31.615 "/>
<path style="fill:none;stroke:#B1B1B1;stroke-width:0.96;stroke-linejoin:round;stroke-miterlimit:10;" d="M827.41,204.93
	l62.482,11.163l24.546,13.395l20.078,7.433l11.164,5.958l12.641,4.458l40.166,6.696l0.984-0.329l-2.752-5.908l-0.972-2.968v-7.743
	l-2.968-11.277l-3.265-11.385l-4.154-11.089l-0.646-8.12v-0.54h-0.756v-0.485l-2.726-8.472l-8.309-22.905l-3.396-9.845l-5-2.709
	c0,0-0.333-2.109,0.834-3.617c1.166-1.508,2.5-5.674,2-6.674s-2.755-3-2.878-3.334c-0.122-0.333-2.622-7.5-2.622-7.5
	s2-4.141,0.833-6.57c-1.167-2.43-5.333-15.596-6.833-20.596s-17.167-42.501-17.5-44.334c-0.334-1.833-2.334-5.666-2.667-6.333
	c-0.333-0.666,0-4.166,0-4.166l-4.342-2.667"/>
<path style="fill:none;stroke:#B1B1B1;stroke-width:0.96;stroke-linejoin:round;stroke-miterlimit:10;" d="M46.5,7.792l-6.25,2.854
	l-2.5,4.75L34,25.646l-16.75,12.75v5c0,0-0.25,10.25,0,12.25s-0.111,10.5-0.111,10.5l2.361,12c0,0,3.25,6.5,4,9.5
	s1.75,4.75,2.25,6.5s5,13,5,13s-1,5.5-1.5,6.75s-4.25,15-5,16.5s-1.75,8.5-1.75,8.5l-0.5,2.25c0,0-2.25,2.75-3,4
	s-5.25,7.75-5.25,7.75l-4.25,3c0,0-2.25,6.5-3.75,9.5s-4.5,8-4.5,8l-1.25,5.5l2.762,9.75l4.988,10l4.5,10.5c0,0,1-2.25,0,4.25
	s-1.5,8.25-1,11s2,4.5,3.25,6.25s3.25,4.5,3.25,4.5s1.25,3,1.25,4.25s-1.75,13.5-1.75,13.5l3,10l8.25,21.25v796.932"/>
<line style="fill:none;stroke:#B1B1B1;stroke-width:0.96;stroke-linejoin:round;stroke-miterlimit:10;" x1="28.5" y1="1081.078" x2="1192.259" y2="1081.078"/>
</svg>
