<svg xmlns="http://www.w3.org/2000/svg" width="19" height="19" viewBox="0 0 19 19">
  <defs>
    <style>
      .cls-1 {
        fill: #287197;
      }
    </style>
  </defs>
  <g id="Group_2702" data-name="Group 2702" transform="translate(0 0)">
    <path id="Path_1181" data-name="Path 1181" class="cls-1" d="M18.522,14.014,16.16,11.652a1.672,1.672,0,0,0-2.362,0l-1.074,1.074a1.267,1.267,0,0,1-1.789,0L6.281,8.068a1.265,1.265,0,0,1,0-1.789L7.355,5.205a1.669,1.669,0,0,0,0-2.363L4.993.489a1.672,1.672,0,0,0-2.36,0l-.861.853a6.029,6.029,0,0,0,0,8.517l7.374,7.377a6.02,6.02,0,0,0,8.518,0l.859-.859A1.672,1.672,0,0,0,18.522,14.014ZM3.418,1.276a.558.558,0,0,1,.788,0L6.568,3.63a.556.556,0,0,1,0,.787l-.394.394L3.027,1.664ZM9.933,16.447,2.559,9.07a4.895,4.895,0,0,1-.307-6.606L5.39,5.6a2.376,2.376,0,0,0,.1,3.253l4.654,4.657h0a2.376,2.376,0,0,0,3.253.1l3.138,3.138A4.886,4.886,0,0,1,9.933,16.447Zm7.8-.859-.394.394-3.149-3.149.394-.394a.557.557,0,0,1,.787,0L17.735,14.8A.557.557,0,0,1,17.735,15.588Z" transform="translate(-0.011 0)"/>
  </g>
</svg>
